<svg width="18" height="18" viewBox="0 0 18 18" fill="none" xmlns="http://www.w3.org/2000/svg">
<g id="Group 1339">
<path id="Vector" d="M9.80769 12.5C9.80769 12.6597 9.76032 12.8159 9.67157 12.9487C9.58282 13.0816 9.45668 13.1851 9.30909 13.2462C9.1615 13.3073 8.99911 13.3233 8.84243 13.2922C8.68575 13.261 8.54183 13.1841 8.42888 13.0711C8.31592 12.9582 8.23899 12.8142 8.20783 12.6576C8.17666 12.5009 8.19266 12.3385 8.25379 12.1909C8.31492 12.0433 8.41845 11.9172 8.55127 11.8284C8.6841 11.7397 8.84026 11.6923 9 11.6923C9.21421 11.6923 9.41965 11.7774 9.57113 11.9289C9.7226 12.0803 9.80769 12.2858 9.80769 12.5ZM9 5.23077C7.51519 5.23077 6.30769 6.31779 6.30769 7.65385V7.92308C6.30769 8.06588 6.36443 8.20284 6.46541 8.30383C6.56639 8.40481 6.70335 8.46154 6.84616 8.46154C6.98896 8.46154 7.12592 8.40481 7.22691 8.30383C7.32789 8.20284 7.38462 8.06588 7.38462 7.92308V7.65385C7.38462 6.91346 8.10952 6.30769 9 6.30769C9.89048 6.30769 10.6154 6.91346 10.6154 7.65385C10.6154 8.39423 9.89048 9 9 9C8.85719 9 8.72023 9.05673 8.61925 9.15771C8.51827 9.25869 8.46154 9.39565 8.46154 9.53846V10.0769C8.46154 10.2197 8.51827 10.3567 8.61925 10.4577C8.72023 10.5587 8.85719 10.6154 9 10.6154C9.14281 10.6154 9.27977 10.5587 9.38075 10.4577C9.48173 10.3567 9.53846 10.2197 9.53846 10.0769V10.0285C10.7662 9.80298 11.6923 8.82365 11.6923 7.65385C11.6923 6.31779 10.4848 5.23077 9 5.23077Z" fill="#262626"/>
<circle id="Ellipse 92" cx="9" cy="9" r="7.8" stroke="#262626" stroke-width="1.6"/>
</g>
</svg>
