<svg xmlns="http://www.w3.org/2000/svg" width="24" height="24" viewBox="0 0 24 24" fill="none">
  <path d="M5.76718 18.7884L10.8978 13.6577C11.2058 13.3497 11.3598 13.1957 11.5374 13.138C11.6936 13.0873 11.8619 13.0873 12.0181 13.138C12.1957 13.1957 12.3497 13.3497 12.6577 13.6577L17.7542 18.7542M13.3333 14.3333L15.5645 12.1022C15.8725 11.7942 16.0265 11.6402 16.2041 11.5825C16.3603 11.5317 16.5286 11.5317 16.6848 11.5825C16.8624 11.6402 17.0164 11.7942 17.3244 12.1022L19.5556 14.3333M10.2222 9.66667C10.2222 10.5258 9.52578 11.2222 8.66667 11.2222C7.80756 11.2222 7.11111 10.5258 7.11111 9.66667C7.11111 8.80756 7.80756 8.11111 8.66667 8.11111C9.52578 8.11111 10.2222 8.80756 10.2222 9.66667ZM7.73333 19H15.8222C17.129 19 17.7824 19 18.2815 18.7457C18.7206 18.522 19.0775 18.165 19.3012 17.726C19.5556 17.2269 19.5556 16.5735 19.5556 15.2667V8.73333C19.5556 7.42654 19.5556 6.77315 19.3012 6.27402C19.0775 5.83498 18.7206 5.47802 18.2815 5.25432C17.7824 5 17.129 5 15.8222 5H7.73333C6.42654 5 5.77315 5 5.27402 5.25432C4.83498 5.47802 4.47802 5.83498 4.25432 6.27402C4 6.77315 4 7.42654 4 8.73333V15.2667C4 16.5735 4 17.2269 4.25432 17.726C4.47802 18.165 4.83498 18.522 5.27402 18.7457C5.77315 19 6.42654 19 7.73333 19Z" stroke="#262626" stroke-width="1.6" stroke-linecap="round" stroke-linejoin="round"/>
</svg>