<svg width="24" height="24" viewBox="0 0 24 24" fill="none" xmlns="http://www.w3.org/2000/svg">
<path d="M4.54102 3.94531V7.5H3.71826V4.87305L2.90771 5.10986V4.48486L4.46533 3.94531H4.54102Z" fill="#262626"/>
<path d="M5.2002 12.8652V13.5H2.71973V12.9629L3.8623 11.7617C3.96322 11.6462 4.0446 11.5428 4.10645 11.4517C4.16829 11.3589 4.21305 11.2751 4.24072 11.2002C4.27002 11.1253 4.28467 11.0578 4.28467 10.9976C4.28467 10.895 4.26921 10.8096 4.23828 10.7412C4.20898 10.6712 4.16504 10.6183 4.10645 10.5825C4.04948 10.5467 3.97868 10.5288 3.89404 10.5288C3.80941 10.5288 3.73535 10.5532 3.67188 10.6021C3.6084 10.6509 3.55876 10.7176 3.52295 10.8022C3.48877 10.8869 3.47168 10.9821 3.47168 11.0879H2.64648C2.64648 10.8698 2.69938 10.6704 2.80518 10.4897C2.9126 10.3091 3.06152 10.165 3.25195 10.0576C3.44238 9.94857 3.66292 9.89404 3.91357 9.89404C4.17562 9.89404 4.39535 9.93473 4.57275 10.0161C4.75016 10.0975 4.88363 10.2155 4.97314 10.3701C5.06429 10.5231 5.10986 10.7078 5.10986 10.9243C5.10986 11.048 5.09033 11.1668 5.05127 11.2808C5.01221 11.3947 4.95605 11.5078 4.88281 11.6201C4.80957 11.7308 4.72005 11.8447 4.61426 11.9619C4.51009 12.0791 4.39128 12.2036 4.25781 12.3354L3.79883 12.8652H5.2002Z" fill="#262626"/>
<path d="M3.46924 17.3784H3.86963C3.97217 17.3784 4.05599 17.3605 4.12109 17.3247C4.18783 17.2873 4.23747 17.2352 4.27002 17.1685C4.30257 17.1001 4.31885 17.0195 4.31885 16.9268C4.31885 16.8551 4.30339 16.7892 4.27246 16.729C4.24316 16.6688 4.19759 16.6208 4.13574 16.585C4.07389 16.5475 3.99495 16.5288 3.89893 16.5288C3.83382 16.5288 3.77035 16.5426 3.7085 16.5703C3.64665 16.5964 3.59538 16.6338 3.55469 16.6826C3.51562 16.7314 3.49609 16.7909 3.49609 16.8608H2.6709C2.6709 16.659 2.72624 16.4865 2.83691 16.3433C2.94922 16.1984 3.09652 16.0877 3.27881 16.0112C3.46273 15.9331 3.66048 15.894 3.87207 15.894C4.12435 15.894 4.3457 15.9331 4.53613 16.0112C4.72656 16.0877 4.87467 16.2017 4.98047 16.353C5.08789 16.5028 5.1416 16.6883 5.1416 16.9097C5.1416 17.0317 5.11312 17.1465 5.05615 17.2539C4.99919 17.3613 4.91943 17.4557 4.81689 17.5371C4.71436 17.6185 4.59391 17.6828 4.45557 17.73C4.31885 17.7756 4.16911 17.7983 4.00635 17.7983H3.46924V17.3784ZM3.46924 17.9912V17.5811H4.00635C4.18376 17.5811 4.3457 17.6014 4.49219 17.6421C4.63867 17.6812 4.76481 17.7397 4.87061 17.8179C4.9764 17.896 5.05778 17.9928 5.11475 18.1084C5.17171 18.2223 5.2002 18.3534 5.2002 18.5015C5.2002 18.6675 5.16683 18.8156 5.1001 18.9458C5.03337 19.076 4.93978 19.1859 4.81934 19.2754C4.69889 19.3649 4.55811 19.4333 4.39697 19.4805C4.23584 19.526 4.06087 19.5488 3.87207 19.5488C3.72396 19.5488 3.57585 19.5293 3.42773 19.4902C3.27962 19.4495 3.14453 19.3877 3.02246 19.3047C2.90039 19.2201 2.80192 19.1126 2.72705 18.9824C2.65381 18.8506 2.61719 18.6935 2.61719 18.5112H3.44238C3.44238 18.5861 3.46273 18.6545 3.50342 18.7163C3.54574 18.7765 3.60189 18.8245 3.67188 18.8604C3.74186 18.8962 3.81755 18.9141 3.89893 18.9141C3.99984 18.9141 4.08529 18.8953 4.15527 18.8579C4.22689 18.8188 4.28141 18.7668 4.31885 18.7017C4.35628 18.6366 4.375 18.5641 4.375 18.4844C4.375 18.3639 4.35465 18.2679 4.31396 18.1963C4.2749 18.1247 4.21712 18.0726 4.14062 18.04C4.06576 18.0075 3.97542 17.9912 3.86963 17.9912H3.46924Z" fill="#262626"/>
<rect x="7.5" y="5.59961" width="12" height="1.6" rx="0.8" fill="#262626"/>
<rect x="7.5" y="11.1992" width="12" height="1.6" rx="0.8" fill="#262626"/>
<rect x="7.5" y="16.7998" width="12" height="1.6" rx="0.8" fill="#262626"/>
</svg>
