<svg xmlns="http://www.w3.org/2000/svg" width="24" height="24" viewBox="0 0 24 24" fill="none">
  <path d="M5.33451 16.7406C4.41028 15.7588 3.91406 14.6577 3.91406 12.8727C3.91406 9.73162 6.11876 6.91635 9.32486 5.52441L10.1262 6.76109C7.13362 8.38008 6.54858 10.481 6.31527 11.8056C6.79713 11.5561 7.42794 11.4691 8.04619 11.5265C9.66495 11.6764 10.9409 13.0055 10.9409 14.6577C10.9409 15.4907 10.61 16.2897 10.0211 16.8787C9.43209 17.4678 8.63327 17.7987 7.80033 17.7987C7.3397 17.7947 6.88447 17.6991 6.46114 17.5174C6.03781 17.3358 5.65484 17.0717 5.33451 16.7406ZM14.3076 16.7406C13.3834 15.7588 12.8872 14.6577 12.8872 12.8727C12.8872 9.73162 15.0919 6.91635 18.298 5.52441L19.0993 6.76109C16.1068 8.38008 15.5217 10.481 15.2884 11.8056C15.7703 11.5561 16.4011 11.4691 17.0193 11.5265C18.6381 11.6764 19.9141 13.0055 19.9141 14.6577C19.9141 15.4907 19.5832 16.2897 18.9942 16.8787C18.4052 17.4678 17.6064 17.7987 16.7735 17.7987C16.3128 17.7947 15.8576 17.6991 15.4343 17.5174C15.011 17.3358 14.628 17.0717 14.3076 16.7406Z" fill="#262626"/>
</svg>