<svg xmlns="http://www.w3.org/2000/svg" width="24" height="24" viewBox="0 0 24 24" fill="none">
  <path d="M4.88889 13.1111C5.37981 13.1111 5.77778 12.7131 5.77778 12.2222C5.77778 11.7313 5.37981 11.3333 4.88889 11.3333C4.39797 11.3333 4 11.7313 4 12.2222C4 12.7131 4.39797 13.1111 4.88889 13.1111Z" fill="#262626"/>
  <path d="M4.88889 7.77778C5.37981 7.77778 5.77778 7.37981 5.77778 6.88889C5.77778 6.39797 5.37981 6 4.88889 6C4.39797 6 4 6.39797 4 6.88889C4 7.37981 4.39797 7.77778 4.88889 7.77778Z" fill="#262626"/>
  <path d="M4.88889 18.4444C5.37981 18.4444 5.77778 18.0465 5.77778 17.5556C5.77778 17.0646 5.37981 16.6667 4.88889 16.6667C4.39797 16.6667 4 17.0646 4 17.5556C4 18.0465 4.39797 18.4444 4.88889 18.4444Z" fill="#262626"/>
  <path d="M20 12.2222L9.33333 12.2222M20 6.88889L9.33333 6.88889M20 17.5556L9.33333 17.5556M5.77778 12.2222C5.77778 12.7131 5.37981 13.1111 4.88889 13.1111C4.39797 13.1111 4 12.7131 4 12.2222C4 11.7313 4.39797 11.3333 4.88889 11.3333C5.37981 11.3333 5.77778 11.7313 5.77778 12.2222ZM5.77778 6.88889C5.77778 7.37981 5.37981 7.77778 4.88889 7.77778C4.39797 7.77778 4 7.37981 4 6.88889C4 6.39797 4.39797 6 4.88889 6C5.37981 6 5.77778 6.39797 5.77778 6.88889ZM5.77778 17.5556C5.77778 18.0465 5.37981 18.4444 4.88889 18.4444C4.39797 18.4444 4 18.0465 4 17.5556C4 17.0646 4.39797 16.6667 4.88889 16.6667C5.37981 16.6667 5.77778 17.0646 5.77778 17.5556Z" stroke="#262626" stroke-width="1.6" stroke-linecap="round" stroke-linejoin="round"/>
</svg>